# xmcd
#
# Track frame offsets:
#	150
#	21200
#	44740
#	64527
#	86812
#	105370
#	127807
#	148082
#	172485
#	186320
#
# Disc length: 2785 seconds
#
# Revision: 1
# Processed by: cddbd v1.4PL0 Copyright (c) Steve Scherf et al.
# Submitted via: audiograbber 1.82.02
#
DISCID=900adf0a
DTITLE=Cansever - Hala Seviyorum
DYEAR=2003
DGENRE=Pop
TTITLE0=Hýrsýmdan Yaþýyorum
TTITLE1=Unutacagým
TTITLE2=Aman
TTITLE3=Tesadüf Aþklar
TTITLE4=Biktim
TTITLE5=Hala Seviyorum
TTITLE6=Davacýyým
TTITLE7=Dön Gayrý
TTITLE8=Sevdalandým
TTITLE9=Sen Adam Olmassýn
EXTD=metin@metin.nom.tr
EXTT0=
EXTT1=
EXTT2=
EXTT3=
EXTT4=
EXTT5=
EXTT6=
EXTT7=
EXTT8=
EXTT9=
PLAYORDER=
